<?xml version="1.0" encoding="utf-8"?>
<!-- Generator: Adobe Illustrator 25.4.1, SVG Export Plug-In . SVG Version: 6.00 Build 0)  -->
<svg version="1.1" id="Layer_1" xmlns="http://www.w3.org/2000/svg" xmlns:xlink="http://www.w3.org/1999/xlink" x="0px" y="0px"
	 viewBox="0 0 500 500" style="enable-background:new 0 0 500 500;" xml:space="preserve">
<style type="text/css">
	.st0{fill:#034E79;}
	.st1{fill:#FFFFFF;}
</style>
<g>
	<path class="st0" d="M147.1,284.1v68.2v34.1c0,18.8,15.3,34.1,34.1,34.1h0.4c18.8,0,34.1-15.3,34.1-34.1v-34.1v-68.2V250
		c0-18.8-15.3-34.1-34.1-34.1h-0.4c-18.8,0-34.1,15.3-34.1,34.1V284.1z"/>
	<path class="st0" d="M284.3,488.7h68.6h68.6H456c18.8,0,34.1-15.3,34.1-34.1l0,0c0-18.8-15.3-34.1-34.1-34.1h-34.5H387
		c-18.8,0-34.1-15.3-34.1-34.1v-34.1v-34.1c0-18.8-15.3-34.1-34.1-34.1h-0.4c-18.8,0-34.1,15.3-34.1,34.1v34.1v34.1
		c0,18.8-15.3,34.1-34.1,34.1h-0.4c-18.8,0-34.1,15.3-34.1,34.1l0,0c0,18.8,15.3,34.1,34.1,34.1H284.3z"/>
	<path class="st0" d="M421.4,11.3H387c-18.8,0-34.1,15.3-34.1,34.1l0,0c0,18.8-15.3,34.1-34.1,34.1h-34.5h-34.5
		c-18.8,0-34.1,15.3-34.1,34.1v34.1v34.1c0,18.8,15.3,34.1,34.1,34.1h34.5h34.5c18.8,0,34.1-15.3,34.1-34.1l0,0
		c0-18.8,15.3-34.1,34.1-34.1h0.4c18.8,0,34.1,15.3,34.1,34.1l0,0c0,18.8,15.3,34.1,34.1,34.1h0.4c18.8,0,34.1-15.3,34.1-34.1v-34.1
		V79.5V45.4c0-18.8-15.3-34.1-34.1-34.1C456,11.3,421.4,11.3,421.4,11.3z"/>
	<path class="st0" d="M455.5,352.3h0.4c18.8,0,34.1-15.3,34.1-34.1l0,0c0-18.8-15.3-34.1-34.1-34.1h-0.4
		c-18.8,0-34.1,15.3-34.1,34.1l0,0C421.4,337,436.7,352.3,455.5,352.3z"/>
	<path class="st0" d="M10,79.5v68.2v68.2v68.2v68.2v68.2v34.1c0,18.8,15.3,34.1,34.1,34.1h0.4c18.8,0,34.1-15.3,34.1-34.1v-34.1
		v-68.2v-68.2v-68.2v-68.2V79.5V45.4c0-18.8-15.3-34.1-34.1-34.1h-0.4C25.3,11.3,10,26.5,10,45.4V79.5z"/>
</g>
<g>
	<g>
		<path class="st1" d="M44.7,98.6c-2.4,0-4.2-0.5-5.6-1.4c-1.3-0.9-2.3-2.2-2.8-3.8c-0.5-1.6-0.8-3.5-0.8-5.6V76.3
			c0-2.2,0.3-4.1,0.8-5.8c0.5-1.6,1.5-2.9,2.8-3.8c1.3-0.9,3.2-1.3,5.6-1.3c2.2,0,4,0.4,5.3,1.1c1.3,0.8,2.2,1.8,2.7,3.3
			c0.5,1.4,0.8,3.1,0.8,4.9v2.7h-5.7v-2.8c0-0.9,0-1.7-0.1-2.5c-0.1-0.7-0.3-1.3-0.8-1.8c-0.4-0.4-1.1-0.7-2.1-0.7
			c-1,0-1.8,0.2-2.2,0.7c-0.5,0.5-0.8,1.1-0.9,1.9c-0.1,0.8-0.2,1.7-0.2,2.7v14.1c0,1.2,0.1,2.1,0.3,2.9c0.2,0.8,0.5,1.3,1,1.7
			c0.5,0.4,1.2,0.6,2,0.6c1,0,1.7-0.2,2.1-0.7c0.4-0.5,0.7-1.1,0.8-1.9c0.1-0.8,0.2-1.6,0.2-2.6v-2.9h5.7v2.6c0,1.9-0.3,3.6-0.8,5.1
			c-0.5,1.5-1.4,2.6-2.7,3.5C48.7,98.2,47,98.6,44.7,98.6z"/>
		<path class="st1" d="M44.3,154.6c-2.3,0-4.1-0.4-5.5-1.3c-1.4-0.9-2.3-2.1-2.9-3.7c-0.6-1.6-0.9-3.5-0.9-5.7v-12.1
			c0-2.2,0.3-4.1,0.9-5.6c0.6-1.6,1.6-2.8,2.9-3.6c1.4-0.8,3.2-1.2,5.5-1.2c2.3,0,4.2,0.4,5.5,1.2c1.3,0.8,2.3,2,2.9,3.6
			c0.6,1.6,0.9,3.4,0.9,5.6V144c0,2.2-0.3,4-0.9,5.6c-0.6,1.6-1.6,2.8-2.9,3.7S46.6,154.6,44.3,154.6z M44.3,150.3
			c1,0,1.7-0.2,2.2-0.6c0.5-0.4,0.8-1,0.9-1.8c0.2-0.7,0.2-1.6,0.2-2.4v-14.9c0-0.9-0.1-1.7-0.2-2.4c-0.2-0.7-0.5-1.3-0.9-1.7
			c-0.5-0.4-1.2-0.6-2.2-0.6c-0.9,0-1.6,0.2-2.1,0.6c-0.5,0.4-0.8,1-1,1.7c-0.2,0.7-0.2,1.5-0.2,2.4v14.9c0,0.9,0.1,1.7,0.2,2.4
			c0.1,0.7,0.5,1.3,0.9,1.8C42.6,150.1,43.3,150.3,44.3,150.3z"/>
		<path class="st1" d="M33,210.2l0.6-32.4h6.1l4.6,22.4l4.8-22.4H55l0.6,32.4h-4.4l-0.5-22.5l-4.6,22.5h-3.6l-4.7-22.6l-0.4,22.6H33
			z"/>
		<path class="st1" d="M36.2,266.2v-32.4h9.5c1.9,0,3.5,0.4,4.7,1.1c1.2,0.7,2.1,1.8,2.7,3.1c0.6,1.4,0.9,3,0.9,5
			c0,2.1-0.4,3.8-1.1,5.1c-0.7,1.3-1.7,2.2-3,2.8c-1.3,0.6-2.8,0.9-4.6,0.9h-3.2v14.4H36.2z M42.1,247.6h2.2c1.1,0,1.9-0.2,2.5-0.5
			c0.6-0.3,1-0.8,1.2-1.5s0.3-1.6,0.3-2.7c0-1.2-0.1-2.1-0.3-2.9c-0.2-0.7-0.5-1.3-1.1-1.6c-0.6-0.3-1.5-0.5-2.7-0.5h-2.2V247.6z"/>
		<path class="st1" d="M44.3,322.6c-2.4,0-4.3-0.4-5.6-1.3c-1.3-0.9-2.3-2.1-2.8-3.8c-0.5-1.6-0.8-3.6-0.8-5.8v-21.9h5.8v22.6
			c0,1,0.1,2,0.2,2.9c0.1,0.9,0.4,1.6,0.9,2.2c0.5,0.5,1.2,0.8,2.2,0.8c1,0,1.8-0.3,2.3-0.8c0.5-0.5,0.8-1.3,0.9-2.2
			c0.1-0.9,0.2-1.8,0.2-2.9v-22.6h5.7v21.9c0,2.3-0.3,4.2-0.8,5.8c-0.5,1.6-1.4,2.9-2.7,3.8S46.7,322.6,44.3,322.6z"/>
		<path class="st1" d="M41.4,378.2v-28h-5.2v-4.4h16.2v4.4h-5.1v28H41.4z"/>
		<path class="st1" d="M44.3,434.6c-2.3,0-4.1-0.4-5.5-1.3c-1.4-0.9-2.3-2.1-2.9-3.7c-0.6-1.6-0.9-3.5-0.9-5.7v-12.1
			c0-2.2,0.3-4.1,0.9-5.6c0.6-1.6,1.6-2.8,2.9-3.6c1.4-0.8,3.2-1.2,5.5-1.2c2.3,0,4.2,0.4,5.5,1.2s2.3,2,2.9,3.6
			c0.6,1.6,0.9,3.4,0.9,5.6V424c0,2.2-0.3,4-0.9,5.6c-0.6,1.6-1.6,2.8-2.9,3.7S46.6,434.6,44.3,434.6z M44.3,430.3
			c1,0,1.7-0.2,2.2-0.6c0.5-0.4,0.8-1,0.9-1.8c0.2-0.7,0.2-1.6,0.2-2.4v-14.9c0-0.9-0.1-1.7-0.2-2.4c-0.2-0.7-0.5-1.3-0.9-1.7
			c-0.5-0.4-1.2-0.6-2.2-0.6c-0.9,0-1.6,0.2-2.1,0.6s-0.8,1-1,1.7c-0.2,0.7-0.2,1.5-0.2,2.4v14.9c0,0.9,0.1,1.7,0.2,2.4
			c0.1,0.7,0.5,1.3,0.9,1.8S43.3,430.3,44.3,430.3z"/>
	</g>
</g>
</svg>
